<svg width="32" height="32" viewBox="0 0 32 32" fill="none" xmlns="http://www.w3.org/2000/svg">
<rect width="32" height="32" fill="#444877"/>
<path d="M6 21V4H12.8027C14.0241 4 15.0464 4.17985 15.8695 4.53955C16.6979 4.89925 17.3192 5.40283 17.7335 6.05029C18.153 6.69775 18.3627 7.44759 18.3627 8.29981C18.3627 8.94727 18.2326 9.52555 17.9724 10.0347C17.7122 10.5382 17.3538 10.9561 16.8971 11.2881C16.4404 11.6201 15.912 11.8525 15.3119 11.9854V12.1514C15.9704 12.1846 16.5784 12.37 17.136 12.7075C17.6989 13.0451 18.1503 13.5155 18.4902 14.1187C18.5 14.5 18.5 15.7437 18.5 16C18.5 16.2563 18.5 18.5 18.3309 18.6924C17.8848 19.4063 17.2396 19.9707 16.3952 20.3857C15.5509 20.7952 14.5259 21 13.3205 21H6ZM9.94301 17.688H12.3805C13.2355 17.688 13.8648 17.5192 14.2684 17.1816C14.6773 16.8441 14.8817 16.3737 14.8817 15.7705C14.8817 15.3333 14.7835 14.957 14.587 14.6416C14.3905 14.3206 14.1117 14.0744 13.7506 13.9028C13.3895 13.7257 12.9567 13.6372 12.4522 13.6372H9.94301V17.688ZM9.94301 10.9893H12.1256C12.5558 10.9893 12.9381 10.9146 13.2727 10.7651C13.6072 10.6157 13.8674 10.3999 14.0533 10.1177C14.2445 9.83545 14.3401 9.49512 14.3401 9.09668C14.3401 8.52669 14.1462 8.07845 13.7586 7.75195C13.3709 7.42546 12.8478 7.26221 12.1893 7.26221H9.94301V10.9893Z" fill="#FFAA72"/>
<path d="M15 28V12H21.2794C22.4069 12 23.3505 12.1693 24.1103 12.5078C24.875 12.8464 25.4485 13.3203 25.8309 13.9297C26.2181 14.5391 26.4118 15.2448 26.4118 16.0469C26.4118 16.6563 26.2917 17.2005 26.0515 17.6797C25.8113 18.1536 25.4804 18.5469 25.0588 18.8594C24.6373 19.1719 24.1495 19.3906 23.5956 19.5156V19.6719C24.2034 19.7031 24.7647 19.8776 25.2794 20.1953C25.799 20.513 26.2157 20.9557 26.5294 21.5234C26.8431 22.0859 27 22.7526 27 23.5234C27 24.3828 26.7941 25.151 26.3824 25.8281C25.9706 26.5 25.375 27.0313 24.5956 27.4219C23.8162 27.8073 22.8701 28 21.7574 28H15ZM18.6397 24.8828H20.8897C21.6789 24.8828 22.2598 24.724 22.6324 24.4062C23.0098 24.0885 23.1985 23.6458 23.1985 23.0781C23.1985 22.6667 23.1078 22.3125 22.9265 22.0156C22.7451 21.7135 22.4877 21.4818 22.1544 21.3203C21.8211 21.1536 21.4216 21.0703 20.9559 21.0703H18.6397V24.8828ZM18.6397 18.5781H20.6544C21.0515 18.5781 21.4044 18.5078 21.7132 18.3672C22.0221 18.2266 22.2623 18.0234 22.4338 17.7578C22.6103 17.4922 22.6985 17.1719 22.6985 16.7969C22.6985 16.2604 22.5196 15.8385 22.1618 15.5313C21.8039 15.224 21.3211 15.0703 20.7132 15.0703H18.6397V18.5781Z" fill="white"/>
</svg>
